<?xml version="1.0" standalone="no"?>
<!DOCTYPE svg PUBLIC "-//W3C//DTD SVG 20010904//EN"
 "http://www.w3.org/TR/2001/REC-SVG-20010904/DTD/svg10.dtd">
<svg version="1.0" xmlns="http://www.w3.org/2000/svg"
 width="580.000000pt" height="580.000000pt" viewBox="0 0 580.000000 580.000000"
 preserveAspectRatio="xMidYMid meet">
<metadata>
Created by potrace 1.11, written by Peter Selinger 2001-2013
</metadata>
<g transform="translate(0.000000,580.000000) scale(0.100000,-0.100000)"
fill="#000000" stroke="none">
<path d="M2734 5769 c1 -19 10 -38 26 -50 23 -18 24 -20 8 -32 -16 -13 -16
-15 0 -31 16 -17 16 -18 -5 -7 -23 12 -37 29 -38 46 0 6 -14 28 -32 50 -27 32
-33 36 -39 22 -3 -10 -4 -29 -1 -43 l5 -26 -57 6 c-46 5 -60 2 -79 -13 -13
-12 -20 -25 -16 -35 5 -12 2 -15 -11 -10 -14 6 -16 3 -10 -14 5 -18 2 -22 -14
-22 -12 0 -21 5 -21 10 0 18 30 70 40 70 6 0 10 7 10 15 0 8 -3 15 -6 15 -6 0
-53 -35 -87 -65 -15 -13 -21 -14 -33 -4 -11 9 -21 9 -38 1 -13 -6 -33 -8 -44
-5 -13 3 -28 -3 -41 -16 -24 -24 -26 -34 -9 -61 17 -27 5 -34 -36 -20 -30 10
-38 9 -52 -4 -8 -9 -29 -16 -45 -16 -18 0 -28 -5 -27 -12 2 -9 -7 -12 -24 -10
-16 1 -28 -1 -28 -6 0 -10 -45 -32 -66 -32 -8 0 -32 -11 -52 -25 -21 -14 -51
-25 -69 -25 -21 0 -33 -5 -33 -13 0 -8 -18 -30 -41 -50 -30 -27 -47 -35 -63
-31 -16 4 -32 -3 -56 -26 -19 -18 -45 -36 -59 -41 -18 -8 -21 -13 -13 -21 18
-18 14 -28 -10 -28 -15 -1 -38 -20 -68 -57 -57 -71 -69 -83 -81 -83 -5 0 -9
-6 -9 -13 0 -8 -11 -24 -25 -37 -14 -13 -25 -27 -25 -32 0 -5 -20 -33 -45 -63
-24 -30 -50 -74 -56 -97 -7 -24 -21 -54 -31 -67 -11 -14 -16 -32 -12 -43 3
-12 -4 -33 -19 -56 -29 -44 -80 -241 -71 -276 3 -13 1 -26 -4 -30 -5 -3 -8
-75 -6 -175 3 -106 0 -172 -6 -176 -12 -7 -13 -45 -2 -45 5 0 8 -26 8 -57 0
-81 10 -153 23 -166 14 -14 14 -40 -1 -55 -9 -9 -7 -16 7 -32 16 -18 19 -37
20 -116 0 -52 2 -94 4 -94 2 0 16 11 33 25 16 13 47 30 68 36 35 11 44 9 85
-12 64 -34 177 -132 162 -141 -16 -10 0 -22 48 -36 66 -20 98 -53 98 -101 0
-43 5 -49 25 -29 10 10 11 5 6 -22 -4 -19 -11 -44 -17 -54 -7 -15 -5 -22 7
-31 20 -15 21 -54 1 -69 -13 -10 -11 -21 11 -91 21 -66 25 -93 21 -154 -4 -66
-1 -78 19 -109 13 -19 27 -56 30 -83 4 -27 10 -49 15 -49 5 0 9 6 9 13 0 8 9
22 19 31 33 30 35 63 5 114 -24 40 -25 49 -15 77 14 39 14 45 0 45 -6 0 -17 7
-26 16 -13 12 -13 20 -4 40 15 34 14 44 -4 38 -20 -8 -20 20 0 76 11 32 12 46
4 56 -13 16 -5 72 22 162 10 34 28 124 38 200 35 237 66 370 120 508 44 113
63 146 137 244 47 62 77 109 67 105 -10 -4 -29 -10 -43 -13 -22 -4 -20 0 21
45 26 27 52 59 58 72 11 20 11 22 -6 13 -10 -6 -34 -26 -52 -46 -19 -20 -39
-36 -45 -36 -6 0 6 17 26 38 77 80 75 123 -2 47 -57 -57 -67 -48 -15 12 36 42
44 63 24 63 -13 0 -61 -47 -76 -75 -7 -11 -15 -16 -19 -12 -4 4 9 24 29 45 20
21 37 41 37 45 0 15 -18 6 -48 -23 -46 -43 -73 -39 -33 4 55 60 22 91 -36 34
-40 -38 -58 -29 -20 10 15 16 27 31 27 35 0 12 -30 7 -58 -10 -16 -9 -2 9 31
44 36 37 58 67 55 78 -3 16 -5 15 -28 -2 -34 -26 -120 -75 -120 -69 0 3 27 37
60 75 33 39 60 75 60 80 0 14 -34 0 -97 -38 -28 -17 -52 -31 -55 -31 -3 0 -3
11 0 25 5 29 -17 42 -46 26 -12 -6 -28 -8 -36 -5 -25 10 -18 33 12 40 15 3 33
7 40 10 6 2 12 -1 12 -6 0 -6 7 -10 15 -10 8 0 15 -7 15 -15 0 -29 78 -9 109
29 12 14 10 16 -7 16 -28 0 -19 26 22 62 34 29 29 47 -8 30 -21 -9 -23 -8 -19
8 3 11 11 25 19 31 23 19 16 32 -13 24 -27 -6 -27 -6 -9 14 13 14 17 29 13 48
-3 18 1 39 13 58 10 17 17 42 16 57 -4 38 43 82 90 84 40 1 67 20 46 33 -19
12 -3 41 23 41 14 0 25 7 28 20 5 18 14 20 76 20 41 0 71 4 71 10 0 6 -9 10
-21 10 -12 0 -18 4 -13 11 5 8 30 10 80 6 48 -5 74 -3 76 4 2 7 26 0 60 -17
36 -17 62 -24 74 -20 16 6 11 12 -29 33 -27 13 -47 26 -44 29 2 3 38 -7 80
-21 42 -14 86 -25 99 -25 13 0 48 -7 78 -15 59 -16 70 -14 50 10 -23 27 -1 29
28 3 32 -31 130 -98 143 -98 25 0 3 31 -57 80 -94 78 -104 88 -104 105 0 29
23 14 106 -67 46 -45 87 -78 91 -75 3 4 -4 20 -18 35 -13 16 1 3 31 -28 59
-61 107 -96 117 -87 3 4 1 13 -6 21 -9 11 -7 15 7 18 22 6 42 -3 93 -44 39
-29 55 -36 43 -16 -5 8 -2 9 12 4 10 -5 37 -11 59 -14 l40 -5 -42 49 c-22 27
-71 67 -107 89 -36 22 -66 46 -66 53 0 17 36 7 70 -19 46 -35 80 -51 80 -37
-1 14 -103 126 -155 168 -67 56 -54 58 26 4 105 -71 123 -77 79 -29 -28 31
-22 28 28 -15 57 -48 78 -71 52 -55 -14 8 -2 -44 14 -64 14 -18 203 -171 210
-171 4 0 -9 21 -27 48 -18 26 -37 53 -42 61 -13 23 52 -19 108 -69 32 -28 52
-40 55 -32 2 8 14 4 35 -14 37 -31 47 -17 19 28 -11 18 -22 60 -26 92 l-7 59
29 -29 c16 -16 41 -48 56 -71 30 -49 46 -55 46 -17 0 16 4 23 11 18 6 -3 14
-1 18 5 5 8 19 3 44 -16 20 -15 57 -44 83 -63 25 -19 57 -50 70 -70 50 -74 59
-86 101 -132 58 -64 110 -147 139 -224 13 -35 37 -88 54 -117 16 -30 30 -63
30 -74 0 -12 9 -43 21 -70 17 -39 21 -74 24 -190 2 -79 2 -143 0 -143 -3 0
-28 11 -57 24 -29 13 -69 29 -89 35 -44 14 -159 14 -179 1 -8 -5 -10 -10 -5
-10 10 0 -15 -20 -26 -20 -4 0 -9 9 -12 20 -7 28 -23 25 -39 -7 -7 -14 -19
-29 -27 -31 -8 -3 -11 0 -7 7 13 21 -14 11 -58 -21 -24 -18 -63 -46 -86 -63
-54 -39 -66 -60 -45 -81 9 -9 13 -24 9 -38 -4 -16 6 -47 29 -92 40 -79 102
-258 112 -324 4 -25 15 -58 24 -75 l16 -30 5 55 5 55 48 6 c58 6 158 -23 243
-70 31 -18 58 -30 60 -28 3 3 -8 19 -23 37 -36 43 -36 64 1 70 16 3 31 11 34
18 3 9 -3 10 -23 2 -53 -20 -165 -5 -165 22 0 4 -21 8 -47 8 -58 0 -160 53
-183 94 -14 25 -13 28 5 42 26 19 36 14 49 -26 10 -32 17 -37 91 -62 102 -34
113 -34 117 -2 l3 26 28 -22 c15 -12 25 -25 22 -30 -3 -5 1 -11 7 -13 7 -3 1
-6 -14 -6 -55 -2 -27 -21 31 -21 56 0 59 1 71 30 10 24 10 38 -2 75 -13 37
-13 45 -2 45 49 0 -53 134 -122 160 -32 12 -84 13 -84 1 0 -5 14 -11 32 -15
51 -10 144 -93 125 -112 -6 -7 -48 14 -62 32 -11 13 -140 30 -132 17 3 -4 -18
-8 -46 -8 -29 0 -74 -3 -100 -7 -46 -7 -48 -7 -45 15 2 16 15 26 50 38 26 8
51 19 55 22 3 4 22 7 42 7 25 0 32 3 24 11 -6 6 -35 9 -67 7 -31 -1 -56 0 -56
5 0 8 15 10 43 7 13 -1 17 4 15 17 -4 23 54 53 105 53 20 0 37 5 37 10 0 6
-31 10 -77 9 -67 -1 -86 -5 -132 -31 -60 -33 -81 -29 -36 8 44 37 88 59 93 46
2 -7 14 -7 35 -1 18 5 44 9 59 9 16 0 28 5 28 11 0 16 81 4 136 -20 24 -11 69
-45 100 -76 30 -30 59 -55 62 -55 4 0 9 -21 10 -46 1 -26 6 -52 11 -58 5 -6
12 -38 16 -71 4 -33 12 -65 17 -72 5 -6 13 -67 18 -133 5 -67 11 -125 15 -128
14 -15 26 27 22 79 -3 31 -1 74 4 95 4 21 13 61 18 87 6 27 17 63 25 80 20 44
25 65 28 115 1 24 8 48 15 54 7 6 13 17 13 24 0 8 4 14 9 14 4 0 11 30 14 66
4 37 12 76 20 88 16 25 20 75 8 90 -18 23 -22 67 -7 88 15 21 11 44 -11 66 -8
9 -13 41 -14 90 -1 96 -40 205 -76 210 -18 3 -21 8 -17 31 5 21 -4 40 -40 88
-25 33 -46 71 -46 83 0 12 -16 38 -37 58 l-36 37 -9 -32 c-10 -37 -23 -42 -38
-14 -15 30 -12 48 10 54 18 5 19 7 5 34 -8 15 -15 33 -15 39 0 6 -6 17 -14 23
-8 7 -18 26 -21 42 -4 16 -14 35 -23 41 -21 16 -72 119 -72 146 0 18 -38 62
-54 62 -13 0 -34 -25 -38 -46 -4 -22 -70 -56 -113 -58 -24 -1 -31 4 -33 22 -3
18 1 22 25 22 33 1 68 24 58 39 -4 7 4 11 19 11 34 0 33 18 -1 26 -18 5 -30 2
-38 -10 -13 -17 -55 -22 -55 -6 0 6 7 10 15 10 8 0 15 6 15 14 0 7 10 16 22
19 19 5 20 8 7 23 -11 13 -11 18 -1 21 18 7 15 23 -4 23 -19 0 -64 -40 -64
-57 0 -8 -13 -13 -30 -13 -16 0 -30 4 -30 8 0 12 52 58 75 66 16 6 17 9 5 16
-8 6 -22 10 -31 10 -9 0 -19 7 -23 15 -3 8 -12 15 -21 15 -8 0 -15 4 -15 9 0
5 -15 25 -32 44 -18 19 -34 44 -36 56 -2 12 -10 34 -18 49 -7 15 -14 32 -14
38 0 12 -32 44 -44 44 -4 0 -5 -12 -4 -26 5 -45 -18 -38 -57 18 -34 47 -36 51
-12 35 48 -31 87 -16 65 26 -6 11 -16 16 -27 12 -11 -3 -35 8 -63 29 l-46 35
-111 -1 c-61 0 -111 -5 -111 -9 0 -5 6 -9 14 -9 7 0 19 -7 26 -15 9 -10 9 -15
1 -15 -6 0 -11 -6 -11 -14 0 -27 -22 -29 -41 -5 -24 32 -35 17 -13 -19 10 -18
14 -37 10 -48 -7 -18 -9 -18 -26 4 -10 12 -24 22 -30 22 -8 0 -11 17 -8 55 2
46 0 55 -14 55 -28 0 -48 -12 -48 -29 0 -26 -14 -41 -29 -31 -12 7 -12 12 3
34 l16 26 -55 0 c-31 0 -55 -4 -55 -10 0 -7 -6 -7 -19 0 -34 18 -47 11 -24
-12 l22 -21 -24 -19 c-13 -10 -31 -18 -42 -17 -14 0 -13 2 5 10 14 5 22 16 20
26 -4 22 -28 29 -28 9 0 -9 -4 -16 -8 -16 -5 0 -8 10 -8 23 1 18 -5 22 -36 25
-29 2 -40 -2 -50 -17 -7 -12 -18 -21 -25 -21 -7 0 -13 -4 -13 -9 0 -5 -8 -11
-17 -13 -15 -3 -15 -4 0 -20 9 -9 21 -18 27 -20 15 -5 1 -38 -16 -38 -8 0 -14
7 -14 15 0 9 -16 23 -35 32 -19 9 -37 25 -41 35 -3 11 -17 23 -30 28 -13 5
-24 14 -24 20 0 5 -6 10 -14 10 -9 0 -13 -10 -12 -31z m769 -73 c18 -14 23
-36 8 -36 -5 0 -16 11 -25 25 -18 27 -11 32 17 11z m-458 -14 c-3 -3 -11 0
-18 7 -9 10 -8 11 6 5 10 -3 15 -9 12 -12z m-46 -23 c9 -26 9 -29 -3 -20 -16
14 -28 51 -16 51 4 0 13 -14 19 -31z m466 -45 c15 -23 14 -24 -5 -24 -11 0
-19 3 -18 8 1 4 -3 17 -10 29 -11 19 -10 22 2 17 8 -3 22 -17 31 -30z m-1175
-25 c0 -6 -4 -7 -10 -4 -5 3 -10 11 -10 16 0 6 5 7 10 4 6 -3 10 -11 10 -16z
m1416 -29 c18 -25 42 -56 54 -69 12 -12 20 -24 18 -26 -8 -6 -47 -25 -54 -25
-3 0 -1 7 6 15 14 17 11 23 -59 105 -40 47 -42 52 -21 48 15 -2 37 -21 56 -48z
m-1306 25 c0 -8 -8 -15 -18 -15 -10 0 -19 7 -19 15 0 8 9 15 19 15 10 0 18 -7
18 -15z m293 -55 c-3 -11 -11 -16 -20 -13 -8 3 -12 12 -9 20 3 8 6 19 6 25 0
7 5 6 14 -1 8 -7 12 -20 9 -31z m286 -15 c17 -20 31 -41 31 -48 0 -7 9 -31 20
-52 l20 -40 -47 49 c-30 30 -43 50 -35 53 19 7 15 20 -15 48 -15 14 -23 25
-16 25 6 0 25 -16 42 -35z m506 -21 c11 -17 13 -25 4 -22 -16 5 -44 48 -31 48
5 0 17 -12 27 -26z m-1242 -29 c-30 -38 -43 -44 -43 -20 0 8 4 15 8 15 5 0 19
9 32 20 34 29 35 25 3 -15z m972 5 c10 -11 16 -20 13 -20 -3 0 -13 9 -23 20
-10 11 -16 20 -13 20 3 0 13 -9 23 -20z m-1119 -57 c-7 -8 -70 13 -73 24 -3 8
10 6 36 -4 23 -9 39 -18 37 -20z m889 -33 c17 -18 54 -48 83 -67 28 -18 52
-36 52 -39 0 -3 -15 3 -32 15 -18 11 -46 28 -63 37 -55 30 -95 65 -111 96
l-16 31 29 -21 c15 -11 42 -35 58 -52z m419 11 c20 -20 39 -31 58 -31 22 0 28
-5 28 -22 0 -15 23 -45 68 -88 68 -65 129 -143 86 -110 -68 52 -274 244 -274
255 0 5 -8 17 -17 28 -17 19 -17 20 2 9 11 -6 33 -24 49 -41z m476 -7 c0 -8
-7 -14 -15 -14 -17 0 -18 2 -9 24 7 18 24 12 24 -10z m-955 -4 c10 -11 16 -20
13 -20 -3 0 -13 9 -23 20 -10 11 -16 20 -13 20 3 0 13 -9 23 -20z m1007 -2
c-6 -6 -15 -8 -19 -4 -4 4 -1 11 7 16 19 12 27 3 12 -12z m-2034 -8 c26 -1 26
-1 8 -15 -23 -18 -21 -20 24 -33 l35 -10 -32 -1 c-34 -1 -47 -20 -15 -22 19
-1 11 -4 -32 -14 -23 -5 -27 -8 -15 -16 12 -7 11 -9 -3 -9 -10 0 -18 -4 -18
-10 0 -13 -37 -13 -45 0 -3 6 2 13 12 17 21 8 63 50 63 64 0 5 -9 9 -19 9 -11
0 -22 4 -25 9 -10 16 6 42 21 37 8 -3 27 -6 41 -6z m843 -46 c9 -11 5 -11 -23
-4 -18 6 -34 10 -36 10 -2 0 -1 4 2 9 8 12 42 3 57 -15z m-854 -100 c-3 -3
-12 -4 -19 -1 -8 3 -5 6 6 6 11 1 17 -2 13 -5z m-157 -23 c0 -11 -25 -21 -56
-21 -23 0 -31 10 -17 23 10 10 73 8 73 -2z m2437 -77 c-20 -38 -74 -86 -83
-73 -3 6 4 33 15 60 12 27 19 54 16 59 -10 16 30 16 48 -1 17 -15 17 -20 4
-45z m24 -58 c-18 -19 -19 -25 -8 -29 8 -3 25 2 37 10 22 16 23 15 18 -16 -4
-29 -2 -31 21 -29 21 3 27 -2 29 -22 2 -14 8 -35 14 -48 10 -19 9 -25 -2 -32
-21 -13 -25 -13 -46 11 -15 17 -16 23 -5 41 12 20 11 20 -24 14 -25 -5 -35 -4
-30 3 3 6 1 11 -6 11 -8 0 -8 4 1 15 17 21 7 29 -18 16 -32 -17 -41 -13 -38
14 4 33 56 89 70 75 6 -6 2 -18 -13 -34z m-2336 25 c-11 -10 -41 -15 -65 -11
-8 2 1 6 20 10 52 11 55 11 45 1z m10 -81 c-33 -22 -45 -25 -45 -12 0 11 39
30 60 31 8 1 2 -8 -15 -19z m-95 -75 c0 -7 -92 -75 -102 -75 -15 0 2 20 44 51
38 27 58 35 58 24z m60 -94 c0 -10 -17 -30 -40 -45 -49 -32 -52 -16 -6 30 39
39 46 41 46 15z m2588 -82 c-32 -21 -38 2 -10 41 l17 25 3 -29 c2 -16 -2 -32
-10 -37z m70 -67 c2 -12 -1 -22 -7 -22 -6 0 -11 4 -11 9 0 5 -3 17 -7 27 -4
12 -2 15 8 12 8 -2 15 -14 17 -26z m82 -251 c-1 -12 -3 -11 -12 4 -6 11 -22
34 -37 50 -22 26 -21 25 12 -4 20 -19 37 -42 37 -50z m-53 -3 c-3 -8 -6 -5 -6
6 -1 11 2 17 5 13 3 -3 4 -12 1 -19z m-18 -113 c18 -5 20 -9 10 -16 -11 -6 -9
-13 11 -33 13 -15 21 -26 18 -26 -3 0 -29 28 -58 63 -30 34 -43 52 -29 41 13
-12 35 -25 48 -29z m-432 -646 c-9 -6 -15 -14 -12 -20 4 -5 -1 -9 -9 -9 -26 0
-28 20 -4 29 31 13 47 13 25 0z"/>
<path d="M2684 4196 c-47 -21 -166 -98 -160 -104 3 -3 -24 -25 -59 -50 -36
-24 -65 -50 -65 -56 0 -7 -15 -20 -34 -29 -35 -16 -91 -96 -84 -117 2 -6 23 4
47 22 24 18 51 38 60 45 9 6 40 14 69 16 29 3 71 16 95 30 91 53 309 107 429
107 49 0 90 -4 93 -10 4 -6 15 -8 26 -5 11 4 41 -1 67 -9 49 -17 182 -19 182
-4 0 5 11 1 25 -8 14 -9 22 -20 19 -25 -5 -9 83 -69 104 -69 8 0 16 9 19 20 3
11 12 20 19 20 23 0 16 15 -25 58 -22 23 -33 38 -25 35 17 -6 19 11 2 25 -11
8 -135 62 -145 62 -2 0 -3 -13 -3 -29 0 -17 -6 -31 -16 -35 -19 -7 -47 12 -38
26 9 14 -33 45 -95 70 -47 19 -74 23 -163 22 -70 -1 -113 -6 -123 -14 -12 -10
-18 -9 -31 4 -15 16 -18 16 -35 0 -14 -12 -28 -15 -56 -11 -21 4 -39 11 -41
17 -5 13 -20 12 -58 -4z m146 -66 c0 -5 -15 -10 -32 -9 -28 0 -30 2 -13 9 28
12 45 12 45 0z m570 -54 c0 -8 -4 -18 -10 -21 -5 -3 -10 -4 -10 -1 0 2 -3 11
-6 20 -4 11 -1 16 10 16 9 0 16 -6 16 -14z"/>
<path d="M3070 4013 c0 -6 26 -24 58 -41 31 -17 66 -38 77 -47 21 -16 20 -16
-74 22 -10 5 -12 0 -6 -15 8 -27 3 -27 -38 -5 -24 13 -57 18 -137 18 -97 0
-111 -3 -182 -33 -83 -36 -268 -144 -288 -167 -10 -12 -4 -14 42 -12 39 2 65
10 100 32 26 17 47 36 48 42 1 30 182 99 279 107 84 6 107 -2 161 -59 41 -43
102 -77 124 -69 8 3 24 0 36 -6 16 -9 20 -18 16 -36 -8 -31 19 -33 51 -2 l23
22 -52 53 c-59 60 -54 67 15 23 47 -29 77 -38 77 -22 0 9 -145 117 -216 161
-54 33 -114 50 -114 34z"/>
<path d="M2903 3860 c-34 -5 -83 -18 -109 -29 -26 -12 -52 -21 -60 -21 -15 0
-154 -82 -154 -91 0 -11 50 -17 56 -8 3 5 30 9 61 9 47 0 54 2 49 17 -6 15 8
32 26 33 3 0 15 -16 27 -35 23 -39 57 -57 82 -44 9 4 20 4 26 -2 6 -6 27 -6
61 2 57 12 82 36 82 80 l0 27 54 -31 c29 -18 49 -34 43 -36 -6 -2 -16 -8 -22
-13 -5 -5 -19 -16 -30 -24 -19 -14 -17 -15 20 -8 53 9 94 9 125 -1 l25 -9 -27
37 c-16 19 -28 42 -28 50 0 8 -19 22 -42 32 -24 9 -53 26 -65 37 -13 12 -38
22 -55 23 -18 1 -44 4 -58 7 -14 3 -53 2 -87 -2z m22 -105 c0 -27 -14 -32 -33
-13 -19 19 -14 38 11 38 17 0 22 -6 22 -25z"/>
<path d="M1228 3388 c-27 -23 -48 -62 -48 -91 0 -22 4 -28 15 -23 14 5 15 -2
9 -53 -5 -51 -3 -65 17 -100 22 -40 46 -53 53 -28 2 6 9 44 16 84 6 39 17 79
24 88 12 17 16 16 59 -10 48 -28 75 -54 43 -42 -31 12 -14 -25 22 -46 42 -25
82 -16 82 17 0 45 -99 153 -183 199 -37 20 -87 22 -109 5z"/>
<path d="M3999 3201 c37 -68 30 -175 -14 -221 -13 -14 -27 -37 -30 -52 -5 -21
-21 -34 -61 -54 -61 -30 -77 -50 -62 -78 8 -14 7 -21 -3 -27 -28 -18 -60 -8
-120 36 -34 25 -67 45 -75 45 -8 0 -14 5 -14 11 0 6 16 1 36 -10 l36 -22 -6
36 c-4 19 -4 35 0 35 4 0 24 -16 45 -35 51 -45 82 -48 45 -4 -14 17 -26 36
-26 43 0 23 -40 66 -81 86 -40 21 -142 27 -168 11 -21 -14 -6 -38 28 -46 52
-11 53 -45 1 -45 -14 0 -40 0 -59 0 -18 0 -45 7 -58 16 -14 8 -27 13 -30 10
-13 -12 10 -38 52 -58 37 -18 44 -26 39 -43 -4 -11 -11 -23 -16 -26 -6 -4 -7
-16 -3 -28 7 -24 -10 -29 -19 -6 -8 23 -36 18 -36 -6 0 -19 -4 -20 -33 -15
-26 5 -35 2 -45 -15 -19 -30 -7 -100 15 -92 17 7 16 -6 -3 -82 l-7 -27 44 7
c69 12 89 22 89 46 l0 22 23 -21 c24 -23 47 -29 47 -13 0 5 32 8 70 7 54 -2
70 1 70 11 0 8 4 11 10 8 5 -3 19 -1 31 5 29 16 95 3 127 -26 21 -19 24 -26
13 -33 -18 -12 -6 -18 87 -40 93 -22 113 -32 141 -67 27 -35 19 -45 -30 -38
-33 6 -38 4 -33 -9 5 -13 -4 -13 -73 3 -154 35 -180 39 -349 51 -147 10 -177
10 -225 -4 -83 -23 -159 -31 -159 -17 0 9 -12 11 -40 6 -61 -10 -41 18 44 61
39 19 79 42 89 51 18 16 25 78 7 67 -6 -4 -10 8 -10 27 0 19 -6 42 -13 52 -12
17 -14 16 -24 -7 -9 -20 -17 -24 -42 -21 -27 3 -33 -2 -57 -41 -25 -43 -45
-54 -72 -37 -9 6 -4 16 19 38 17 16 40 41 51 57 40 56 -11 28 -106 -58 -95
-86 -124 -129 -133 -195 -4 -30 -1 -40 16 -53 22 -14 22 -16 6 -53 -10 -25
-12 -40 -5 -42 5 -2 10 -26 10 -54 0 -39 -6 -57 -25 -80 -26 -31 -33 -62 -13
-56 7 3 19 -2 27 -9 12 -12 10 -18 -11 -41 -58 -62 -74 -113 -26 -83 11 7 17
8 13 2 -3 -6 -2 -11 4 -11 6 0 -1 -16 -14 -36 -38 -56 -31 -73 13 -31 l24 22
-13 -28 c-10 -23 -10 -30 0 -36 16 -10 -5 -64 -44 -115 -19 -25 -24 -41 -20
-59 4 -16 1 -34 -9 -49 -14 -22 -14 -26 0 -46 8 -12 11 -22 5 -22 -6 0 -11 5
-11 10 0 6 -9 10 -19 10 -11 0 -33 11 -49 25 -16 13 -32 22 -36 18 -3 -3 -6
-1 -6 5 0 8 -32 12 -107 12 -89 0 -120 5 -178 25 -38 14 -90 25 -115 25 -90 1
-186 65 -274 184 -67 89 -144 223 -152 264 -4 17 -17 38 -30 47 -13 8 -24 23
-24 33 0 9 -7 26 -15 36 -8 11 -15 32 -15 47 0 17 -11 38 -30 56 -24 22 -29
34 -24 56 7 31 -6 36 -23 7 -19 -30 -81 -42 -144 -29 -73 15 -99 30 -199 110
-81 64 -87 71 -110 136 -28 79 -91 216 -97 210 -2 -3 15 -58 38 -123 23 -66
42 -133 43 -150 1 -31 20 -64 38 -64 16 0 57 -54 68 -90 5 -19 10 -52 10 -73
0 -30 5 -40 19 -44 23 -6 41 -63 41 -130 0 -28 8 -64 19 -86 10 -21 17 -46 14
-56 -3 -12 3 -24 17 -34 18 -12 21 -23 19 -63 -3 -37 1 -50 15 -58 38 -22 66
-54 66 -74 0 -15 -5 -20 -15 -16 -11 5 -15 -1 -15 -18 0 -14 3 -28 7 -32 4 -4
13 -34 20 -67 13 -64 7 -95 -22 -119 -25 -20 -156 8 -250 55 -54 26 -84 35
-123 35 l-52 0 0 -815 0 -815 721 0 c558 0 719 3 713 12 -4 7 -215 262 -468
568 -253 305 -473 573 -488 595 -16 22 -30 55 -32 72 -4 30 -3 32 16 22 28
-15 29 -10 10 44 -16 44 -16 51 3 129 18 77 24 209 15 343 -2 22 2 70 8 106 6
36 12 81 13 100 1 19 6 62 11 97 8 46 7 67 -1 75 -20 20 -12 46 24 78 41 38
45 52 9 39 -34 -13 -34 -13 -34 13 0 26 56 55 63 33 3 -8 8 -8 19 1 19 17 28
7 28 -31 0 -17 14 -58 31 -91 16 -33 37 -93 44 -133 21 -106 87 -225 200 -357
108 -127 143 -157 218 -185 32 -12 62 -31 71 -45 9 -14 23 -25 30 -25 7 0 19
-7 26 -15 7 -9 29 -15 51 -15 27 0 45 -6 56 -20 10 -11 25 -20 35 -20 10 0 18
-4 18 -10 0 -5 5 -10 11 -10 6 0 25 -12 42 -26 25 -21 38 -25 65 -20 23 3 39
0 49 -10 9 -9 30 -14 55 -12 22 1 42 -3 46 -9 13 -20 51 -24 87 -8 49 20 55
19 27 -5 -13 -11 -21 -24 -17 -30 9 -15 47 -12 71 5 26 18 37 9 21 -16 -17
-28 3 -53 44 -57 19 -1 48 -9 64 -16 53 -24 102 -37 119 -30 22 8 68 -4 61
-17 -10 -16 83 -51 122 -47 29 3 36 0 43 -18 8 -21 36 -34 77 -34 16 0 20 -5
16 -19 -3 -13 3 -25 21 -36 15 -10 26 -27 26 -40 0 -12 7 -29 16 -36 16 -13
15 -38 -2 -97 -5 -19 -3 -22 21 -22 18 0 28 -6 32 -20 3 -11 11 -20 18 -20 21
0 25 -62 25 -402 l0 -328 376 0 376 0 -38 48 c-22 26 -179 217 -351 424 l-313
378 20 116 c11 64 20 136 20 160 0 48 25 80 70 90 29 7 113 45 120 54 3 4 17
13 32 21 19 10 40 40 68 98 22 46 52 97 65 113 14 16 25 36 25 45 0 8 15 38
34 66 18 29 37 63 41 77 4 14 13 32 19 40 20 24 75 153 82 190 4 19 11 40 15
46 18 22 41 102 54 184 7 47 28 175 46 285 39 242 46 456 13 423 -3 -3 -14
-95 -25 -204 -11 -110 -26 -220 -34 -245 -12 -34 -34 -174 -35 -217 0 -2 -4 0
-10 3 -6 4 -10 -8 -10 -28 0 -19 -7 -40 -15 -47 -8 -7 -15 -25 -15 -41 0 -22
-5 -29 -19 -29 -23 0 -45 -25 -38 -43 2 -7 1 -30 -3 -52 l-8 -40 -1 53 c-1 30
-9 69 -20 90 -25 49 -37 128 -22 146 8 9 8 22 0 45 -9 26 -9 34 4 44 22 18 27
55 12 85 -47 96 -60 120 -82 143 -16 17 -21 29 -14 33 20 13 11 36 -31 79 -43
42 -128 182 -128 208 0 8 16 34 36 59 35 43 36 47 32 115 -3 53 -11 87 -35
138 -18 37 -37 67 -43 67 -7 0 -8 -6 -1 -19z m-403 -394 c15 -19 19 -37 6 -37
-5 0 -16 16 -25 36 -15 30 -20 34 -32 24 -8 -7 -15 -24 -15 -38 0 -26 0 -26
-15 -5 -17 25 -10 54 11 46 10 -3 14 2 14 18 l1 24 20 -25 c11 -14 27 -33 35
-43z m-621 -346 c-8 -17 -18 -31 -21 -31 -7 0 6 42 19 58 17 22 19 5 2 -27z
m794 -64 l33 -14 -32 -7 c-21 -4 -39 -1 -48 6 -9 8 -44 13 -89 13 -71 -1 -96
9 -50 19 38 8 150 -2 186 -17z m-264 -29 c50 1 146 -6 215 -15 69 -8 146 -18
173 -20 29 -3 47 -10 47 -18 0 -7 12 -16 27 -19 14 -4 45 -23 68 -42 48 -39
55 -41 55 -16 0 9 7 26 16 37 19 25 49 9 50 -26 0 -13 6 -34 12 -46 7 -12 12
-33 12 -47 0 -14 7 -51 15 -83 18 -69 21 -153 4 -136 -15 15 -49 5 -42 -13 3
-8 -1 -14 -10 -14 -9 0 -20 -8 -26 -17 -8 -14 -12 -15 -25 -4 -9 7 -16 25 -16
39 0 25 0 25 -21 6 -22 -19 -22 -19 -8 3 17 28 2 45 -17 19 -12 -17 -14 -17
-14 -4 0 9 5 20 10 23 6 3 10 15 10 27 0 18 -2 19 -17 7 -9 -8 -23 -30 -31
-49 -8 -19 -17 -29 -19 -22 -3 7 3 29 12 48 9 19 15 45 13 57 -3 19 -8 21 -46
19 -31 -3 -49 2 -62 13 -12 11 -29 16 -45 13 -14 -3 -28 -1 -31 4 -7 12 -34
-10 -34 -28 0 -20 -7 -18 -38 11 -31 29 -42 31 -42 10 0 -18 -41 -20 -58 -3
-9 9 -15 9 -24 0 -17 -17 -48 -15 -48 2 0 24 -20 29 -40 11 -17 -15 -19 -15
-25 4 -7 23 -25 29 -25 8 0 -7 -9 -18 -20 -25 -12 -7 -20 -23 -20 -38 0 -21 4
-24 20 -19 26 8 25 1 -5 -39 -30 -40 -31 -46 -4 -46 12 0 37 17 56 38 22 22
31 28 24 15 -8 -16 -8 -23 -1 -23 6 0 0 -18 -12 -39 -24 -43 -19 -63 12 -43
18 11 19 9 13 -18 -6 -31 4 -39 25 -18 25 25 24 -4 -2 -53 -31 -60 -26 -77 15
-49 l29 21 0 -55 c0 -65 -31 -155 -66 -194 l-25 -27 7 25 c4 14 17 45 29 70
28 56 41 110 26 110 -6 0 -17 -12 -24 -27 -10 -23 -65 -104 -84 -123 -3 -3 8
21 23 52 33 68 25 86 -16 37 l-29 -34 11 32 c26 70 -16 50 -58 -28 -15 -26
-33 -50 -40 -53 -18 -7 -18 4 2 32 9 13 14 32 11 43 -3 10 -2 21 2 23 4 3 24
39 45 82 31 61 36 80 28 98 -9 19 -14 12 -48 -59 -21 -44 -48 -94 -61 -111
-12 -17 -26 -45 -29 -62 -7 -37 -27 -57 -49 -48 -22 8 -18 31 12 67 15 17 34
54 44 81 15 45 15 49 0 46 -9 -2 -31 -26 -48 -53 -18 -28 -41 -59 -50 -70 -26
-31 -29 2 -3 37 17 23 19 32 10 38 -9 5 -9 9 -1 14 6 4 11 11 11 17 0 20 -25
7 -62 -31 -45 -48 -52 -29 -13 35 24 39 33 85 17 85 -15 0 -39 -24 -57 -55 -9
-16 -13 -21 -10 -10 14 45 17 75 7 75 -11 0 -19 -9 -75 -94 -21 -32 -43 -53
-60 -57 l-28 -7 31 54 c17 29 28 58 25 64 -4 6 5 24 19 41 48 56 28 67 -31 17
l-37 -33 22 38 c26 46 27 47 5 47 -15 0 -15 1 0 18 10 10 17 23 17 28 0 6 14
20 30 32 32 24 40 52 15 52 -17 0 -20 17 -4 22 11 4 24 88 13 88 -3 0 -15 -5
-26 -11 -16 -8 -19 -8 -13 1 4 7 9 27 12 45 4 34 -16 53 -40 38 -7 -4 -6 1 2
10 7 9 11 27 8 39 -7 24 17 58 40 58 7 0 13 5 13 10 0 6 -9 10 -21 10 -11 0
-18 4 -14 10 3 5 12 7 20 3 9 -3 22 0 29 6 10 8 16 9 21 1 4 -7 12 -7 26 1 15
7 24 7 34 -1 16 -13 142 -5 180 11 11 5 34 6 50 2 17 -3 71 -6 120 -5z m171
-639 c-32 -38 -34 -19 -4 30 17 27 24 32 26 18 2 -9 -8 -31 -22 -48z m250 12
c26 21 27 1 4 -56 -21 -52 -21 -88 0 -55 6 9 10 10 10 3 0 -14 -27 -43 -41
-43 -5 0 -9 5 -9 11 0 5 -5 7 -11 3 -13 -8 -4 25 17 68 8 15 14 32 14 38 0 18
-22 11 -27 -10 -4 -14 -13 -20 -32 -19 -14 0 -20 3 -13 6 6 2 12 11 12 18 0 7
12 22 28 33 22 17 28 18 30 6 3 -12 7 -13 18 -3z m-198 -23 c-16 -48 -32 -60
-23 -18 9 41 13 50 25 50 5 0 4 -15 -2 -32z m38 -14 c-4 -9 -9 -15 -11 -12 -3
3 -3 13 1 22 4 9 9 15 11 12 3 -3 3 -13 -1 -22z m45 -37 c-13 -13 -26 -3 -16
12 3 6 11 8 17 5 6 -4 6 -10 -1 -17z m185 -28 c-18 -26 -22 -54 -6 -44 6 3 10
-1 10 -9 0 -22 -15 -27 -35 -12 -17 12 -16 15 4 61 16 35 24 46 32 38 8 -8 7
-18 -5 -34z"/>
<path d="M3339 3148 c-17 -32 -20 -52 -16 -90 8 -68 22 -88 25 -35 1 24 8 60
17 80 17 41 20 87 5 87 -5 0 -19 -19 -31 -42z"/>
<path d="M1500 3075 c-26 -27 -42 -35 -68 -35 l-35 0 6 -44 c4 -24 2 -70 -3
-102 -20 -122 14 -139 64 -31 35 75 89 147 101 135 4 -4 2 -27 -4 -52 -18 -71
-14 -119 13 -159 16 -23 21 -38 14 -45 -12 -12 -3 -17 40 -27 29 -6 32 -5 32
18 0 24 -17 44 -69 85 l-24 19 42 86 c46 94 46 107 4 157 -34 41 -70 40 -113
-5z"/>
<path d="M3681 3071 c-20 -13 -7 -38 34 -62 19 -12 35 -27 35 -35 0 -20 30
-17 31 4 3 44 -4 68 -23 85 -22 18 -55 22 -77 8z"/>
<path d="M1273 2902 c5 -62 25 -127 64 -210 14 -30 49 -59 59 -49 2 2 -11 37
-30 78 -19 41 -46 113 -61 162 -15 48 -30 87 -33 87 -3 0 -2 -30 1 -68z"/>
</g>
</svg>
